HIERARCHY
ROOT Hips
{
	OFFSET 0.00 0.00 0.00
	CHANNELS 6 Xposition Yposition Zposition Yrotation Xrotation Zrotation
	JOINT Spine
	{
		OFFSET	0.0000	9.2263	1.5771
		CHANNELS 3 Xrotation Yrotation Zrotation
		JOINT Spine1
		{
			OFFSET	0.0000	16.2540	-0.1656
			CHANNELS 3 Xrotation Yrotation Zrotation
			JOINT Spine2
			{
				OFFSET	0.0000	13.6396	-1.2923
				CHANNELS 3 Xrotation Yrotation Zrotation
				JOINT Neck
				{
					OFFSET	0.0000	13.8774	-4.3542
					CHANNELS 3 Xrotation Yrotation Zrotation
					JOINT Neck1
					{
						OFFSET	0.0000	4.3400	0.9269
						CHANNELS 3 Xrotation Yrotation Zrotation
						JOINT Head
						{
							OFFSET	0.0000	4.0266	0.8585
							CHANNELS 3 Xrotation Yrotation Zrotation
							End Site
							{
								OFFSET 0.0000 23.0297 0.1231
							}
						}
					}
				}
				JOINT LeftShoulder
				{
					OFFSET	6.1442	10.1870	-3.7932
					CHANNELS 3 Zrotation Xrotation Yrotation
					JOINT LeftArm
					{
						OFFSET	12.3191	-1.1130	-1.7935
						CHANNELS 3 Zrotation Xrotation Yrotation
						JOINT LeftForeArm
						{
							OFFSET	27.6870	0.0000	0.0000
							CHANNELS 3 Xrotation Zrotation Yrotation
							JOINT LeftHand
							{
								OFFSET	27.8738	0.0000	0.0000
								CHANNELS 3 Zrotation Yrotation Xrotation
								JOINT LeftHandThumb1
								{
									OFFSET	2.3785	-1.0029	2.6209
									CHANNELS 3 Zrotation Xrotation Yrotation
									JOINT LeftHandThumb2
									{
										OFFSET	3.3624	-1.0029	2.8398
										CHANNELS 3 Zrotation Xrotation Yrotation
										JOINT LeftHandThumb3
										{
											OFFSET	4.5018	-1.3445	2.1783
											CHANNELS 3 Zrotation Xrotation Yrotation
											End Site
											{
												OFFSET 2.6000 -1.0000 1.0000
											}
										}
									}
								}
								JOINT LeftHandMiddle1
								{
									OFFSET	10.4639	0.6148	0.4298
									CHANNELS 3 Zrotation Xrotation Yrotation
									JOINT LeftHandMiddle2
									{
										OFFSET	5.7921	0.0000	0.0000
										CHANNELS 3 Zrotation Xrotation Yrotation
										JOINT LeftHandMiddle3
										{
											OFFSET	3.7132	0.0000	0.0000
											CHANNELS 3 Zrotation Xrotation Yrotation
											End Site
											{
												OFFSET 2.3000 0.0000 0.0000
											}
										}
									}
								}
								JOINT LeftHandIndex1
								{
									OFFSET	10.3945	0.6148	2.7055
									CHANNELS 3 Zrotation Xrotation Yrotation
									JOINT LeftHandIndex2
									{
										OFFSET	5.5493	0.0000	0.0000
										CHANNELS 3 Zrotation Xrotation Yrotation
										JOINT LeftHandIndex3
										{
											OFFSET	3.3911	0.0000	0.0000
											CHANNELS 3 Zrotation Xrotation Yrotation
											End Site
											{
												OFFSET 2.5000 0.0000 0.0000
											}
										}
									}
								}
								JOINT LeftHandRing1
								{
									OFFSET	10.3252	0.3211	-1.8755
									CHANNELS 3 Zrotation Xrotation Yrotation
									JOINT LeftHandRing2
									{
										OFFSET	5.4452	0.0000	0.0000
										CHANNELS 3 Zrotation Xrotation Yrotation
										JOINT LeftHandRing3
										{
											OFFSET	3.7132	0.0000	0.0000
											CHANNELS 3 Zrotation Xrotation Yrotation
											End Site
											{
												OFFSET 2.0000 0.0000 0.0000
											}
										}
									}
								}
								JOINT LeftHandPinky1
								{
									OFFSET	10.0130	-0.0783	-3.9671
									CHANNELS 3 Zrotation Xrotation Yrotation
									JOINT LeftHandPinky2
									{
										OFFSET	3.6763	0.0000	0.0000
										CHANNELS 3 Zrotation Xrotation Yrotation
										JOINT LeftHandPinky3
										{
											OFFSET	2.8113	0.0000	0.0000
											CHANNELS 3 Zrotation Xrotation Yrotation
											End Site
											{
												OFFSET 2.9000 0.0000 0.0000
											}
										}
									}
								}
							}
						}
					}
				}
				JOINT RightShoulder
				{
					OFFSET	-6.1402	10.1870	-3.7932
					CHANNELS 3 Zrotation Xrotation Yrotation
					JOINT RightArm
					{
						OFFSET	-12.3231	-1.1130	-1.7935
						CHANNELS 3 Zrotation Xrotation Yrotation
						JOINT RightForeArm
						{
							OFFSET	-27.6870	0.0000	0.0000
							CHANNELS 3 Xrotation Zrotation Yrotation
							JOINT RightHand
							{
								OFFSET	-27.8738	0.0000	0.0000
								CHANNELS 3 Zrotation Yrotation Xrotation
								JOINT RightHandThumb1
								{
									OFFSET	-2.5178	-0.9367	2.5137
									CHANNELS 3 Zrotation Xrotation Yrotation
									JOINT RightHandThumb2
									{
										OFFSET	-3.2638	-1.0870	2.9669
										CHANNELS 3 Zrotation Xrotation Yrotation
										JOINT RightHandThumb3
										{
											OFFSET	-4.4165	-1.3703	2.1350
											CHANNELS 3 Zrotation Xrotation Yrotation
											End Site
											{
												OFFSET -2.6000 -1.0000 1.0000
											}
										}
									}
								}
								JOINT RightHandIndex1
								{
									OFFSET	-10.4665	0.4896	2.7120
									CHANNELS 3 Zrotation Xrotation Yrotation
									JOINT RightHandIndex2
									{
										OFFSET	-5.3768	0.0000	0.0000
										CHANNELS 3 Zrotation Xrotation Yrotation
										JOINT RightHandIndex3
										{
											OFFSET	-3.3855	0.0000	0.0000
											CHANNELS 3 Zrotation Xrotation Yrotation
											End Site
											{
												OFFSET -2.6000 0.0000 0.0000
											}
										}
									}
								}
								JOINT RightHandMiddle1
								{
									OFFSET	-10.7596	0.4896	0.4278
									CHANNELS 3 Zrotation Xrotation Yrotation
									JOINT RightHandMiddle2
									{
										OFFSET	-5.6168	0.0000	0.0000
										CHANNELS 3 Zrotation Xrotation Yrotation
										JOINT RightHandMiddle3
										{
											OFFSET	-3.7364	0.0000	0.0000
											CHANNELS 3 Zrotation Xrotation Yrotation
											End Site
											{
												OFFSET -2.3000 0.0000 0.0000
											}
										}
									}
								}
								JOINT RightHandRing1
								{
									OFFSET	-10.4702	0.3879	-1.9363
									CHANNELS 3 Zrotation Xrotation Yrotation
									JOINT RightHandRing2
									{
										OFFSET	-5.4013	0.0000	0.0000
										CHANNELS 3 Zrotation Xrotation Yrotation
										JOINT RightHandRing3
										{
											OFFSET	-3.3916	0.0000	0.0000
											CHANNELS 3 Zrotation Xrotation Yrotation
											End Site
											{
												OFFSET -2.2000 0.0000 0.0000
											}
										}
									}
								}
								JOINT RightHandPinky1
								{
									OFFSET	-9.9715	-0.1191	-3.9540
									CHANNELS 3 Zrotation Xrotation Yrotation
									JOINT RightHandPinky2
									{
										OFFSET	-3.6528	0.0000	0.0000
										CHANNELS 3 Zrotation Xrotation Yrotation
										JOINT RightHandPinky3
										{
											OFFSET	-2.7820	0.0000	0.0000
											CHANNELS 3 Zrotation Xrotation Yrotation
											End Site
											{
												OFFSET -2.9000 0.0000 0.0000
											}
										}
									}
								}
							}
						}
					}
				}
			}
		}
	}
	JOINT LeftUpLeg
	{
		OFFSET	9.6338	-3.2733	0.0000
		CHANNELS 3 Xrotation Yrotation Zrotation
		JOINT LeftLeg
		{
			OFFSET	0.0000	-41.7300	-1.7300
			CHANNELS 3 Xrotation Yrotation Zrotation
			JOINT LeftFoot
			{
				OFFSET	0.0126	-39.1900	-0.8477
				CHANNELS 3 Xrotation Yrotation Zrotation
				JOINT LeftToeBase
				{
					OFFSET	-0.1833	-12.1931	8.2823
					CHANNELS 3 Xrotation Yrotation Zrotation
					End Site
					{
						OFFSET 0.0000 0.0000 10.1681
					}
				}
			}
		}
	}
	JOINT RightUpLeg
	{
		OFFSET	-9.6338	-3.2733	0.0000
		CHANNELS 3 Xrotation Yrotation Zrotation
		JOINT RightLeg
		{
			OFFSET	0.0000	-41.7300	-1.7300
			CHANNELS 3 Xrotation Yrotation Zrotation
			JOINT RightFoot
			{
				OFFSET	0.0126	-39.1900	-0.8477
				CHANNELS 3 Xrotation Yrotation Zrotation
				JOINT RightToeBase
				{
					OFFSET	-0.1833	-12.1931	8.2823
					CHANNELS 3 Xrotation Yrotation Zrotation
					End Site
					{
						OFFSET 0.0032 0.0000 10.1681
					}
				}
			}
		}
	}
}
MOTION
Frames: 4
Frame Time: 0.0333333
0.5821 87.4442 -8.0050 -48.2461 -7.4034 -4.0537 16.7844 -2.1209 3.7943 8.7918 -1.1648 1.1344 8.7863 -1.1872 1.1527 -1.7337 5.0064 2.9728 -0.0000 0.0000 -0.0000 -2.2204 36.9696 -7.7639 1.8146 -0.0434 -5.2243 -73.6465 -7.4908 -33.4300 0.0000 0.0002 -88.6117 -30.4768 -20.1966 2.3743 -17.5197 -10.2526 4.1737 1.1162 2.1220 23.7695 21.5848 14.4997 35.7899 -85.9514 0.0148 1.4212 -92.3031 0.0157 -0.0150 -37.8090 0.0032 -0.0092 -83.9751 0.0143 1.5284 -91.0549 0.0153 -0.0150 -31.7170 0.0022 -0.0079 -92.2958 0.0165 -3.0297 -87.9685 0.0145 -0.0150 -49.8270 0.0054 -0.0115 -95.3668 0.0172 -6.9243 -71.8454 0.0104 -0.0143 -40.9099 0.0037 -0.0098 -0.3079 0.8781 9.3670 61.3633 -0.0364 6.1025 0.0000 0.0000 102.3312 4.1167 23.3892 5.9811 16.4190 -7.5200 10.0936 4.5160 9.3478 -39.8707 -5.8539 16.8200 -44.2375 89.9590 0.0083 -2.8481 103.4656 0.0098 0.0077 61.5947 0.0041 0.0070 97.0199 0.0092 -1.2850 99.3421 0.0092 0.0078 53.8039 0.0032 0.0064 102.2355 0.0099 2.4591 97.7060 0.0090 0.0078 38.6211 0.0017 0.0049 105.2276 0.0103 3.6942 96.2263 0.0088 0.0079 43.6303 0.0022 0.0055 -33.9161 11.5284 27.6449 36.9900 10.0216 2.9720 5.2846 0.3554 -14.5027 1.0634 -0.0349 2.3968 -7.8399 -14.3672 -9.5244 50.9349 -9.9013 5.1156 -28.3281 -10.7718 7.3532 -0.6632 -0.0603 3.2360 
-0.4507 87.3512 -6.7515 -46.8490 -10.4443 -2.1566 14.4826 -1.6486 4.8770 7.8593 -0.8799 1.5444 7.8529 -0.9086 1.5590 -2.0923 4.0314 3.5594 -0.0000 0.0000 -0.0000 -5.3531 32.7049 -4.1787 0.3182 0.1977 -0.3554 -74.5510 1.2166 -39.4339 -0.0000 -0.0000 -77.4324 -33.3416 -21.5480 1.8056 -16.7039 -10.8065 6.8207 1.1208 2.1215 23.7382 20.5965 13.4990 32.9427 -84.9395 0.0146 1.3657 -90.3739 0.0151 -0.0150 -37.9527 0.0032 -0.0092 -82.7087 0.0141 1.4687 -90.0260 0.0150 -0.0150 -28.4037 0.0018 -0.0071 -90.6520 0.0159 -2.9133 -86.8847 0.0142 -0.0150 -48.8291 0.0051 -0.0113 -94.4069 0.0168 -6.6572 -69.7275 0.0098 -0.0141 -40.7524 0.0036 -0.0098 -0.0316 0.9514 8.4867 62.4245 1.4919 5.4412 0.0000 -0.0000 102.9967 3.8878 22.0320 4.6931 16.3572 -7.1872 9.9816 4.6327 9.3470 -40.4997 -5.9412 17.1545 -43.8695 90.0579 0.0083 -2.7574 103.5859 0.0098 0.0077 59.7969 0.0039 0.0068 96.9740 0.0092 -1.2282 99.2421 0.0092 0.0078 53.8643 0.0032 0.0064 101.9086 0.0099 2.3520 97.5184 0.0089 0.0078 39.3313 0.0018 0.0050 105.1702 0.0103 3.5517 96.2604 0.0088 0.0079 43.7334 0.0022 0.0055 -29.7314 11.2214 24.5017 38.2098 10.1188 3.8507 4.8227 1.2258 -15.2377 0.0999 -0.0591 1.9543 -5.0634 -16.3890 -13.0357 52.1700 -10.0352 4.5194 -26.7755 -8.9106 9.3563 -3.2527 -0.1776 3.9972 
-1.6701 86.8615 -4.9234 -45.3835 -15.5632 -0.2946 11.5994 -1.9335 7.6059 6.6695 -0.9534 2.7534 6.6594 -0.9841 2.7652 -5.4028 2.9979 5.0142 -0.0000 0.0000 -0.0000 -8.7796 29.0257 -0.4082 0.1351 0.0588 2.4134 -76.3902 7.5384 -38.5846 0.0000 0.0000 -74.7962 -31.6076 -23.2485 -0.3328 -16.2985 -8.4271 6.7154 1.1151 2.1234 23.7095 19.6695 11.9627 28.5984 -84.4886 0.0145 1.3015 -89.7471 0.0150 -0.0150 -37.7499 0.0031 -0.0092 -82.0657 0.0138 1.3997 -89.0461 0.0148 -0.0150 -26.6485 0.0016 -0.0067 -90.2983 0.0160 -2.7785 -86.3217 0.0141 -0.0150 -47.2739 0.0048 -0.0110 -94.2496 0.0169 -6.3484 -68.9581 0.0096 -0.0140 -40.7251 0.0036 -0.0098 -0.5054 0.7108 7.9899 62.6663 7.7758 6.5345 0.0000 0.0001 104.5491 0.0155 20.3641 7.6600 15.9736 -5.9930 9.2425 4.3796 9.3471 -39.1529 -5.8182 16.8159 -44.4264 89.8092 0.0082 -2.6661 103.4132 0.0098 0.0077 59.2929 0.0039 0.0068 96.9400 0.0092 -1.1596 98.7986 0.0091 0.0078 54.1579 0.0033 0.0064 101.4241 0.0098 2.2280 97.2235 0.0089 0.0079 40.3973 0.0019 0.0051 105.0386 0.0103 3.3869 96.3055 0.0088 0.0079 43.8447 0.0022 0.0055 -24.7360 11.6322 22.3737 41.5307 10.1264 4.1386 3.1520 0.6718 -15.2790 -1.1578 -0.0600 1.4392 0.1670 -17.2246 -14.7782 53.5073 -10.2138 2.4618 -26.4607 -10.3005 9.5088 -4.4141 -0.4125 6.3853 
-2.4994 85.9706 -3.3110 -45.0966 -19.4513 3.1215 8.2921 -2.9804 10.2389 5.2039 -1.3266 3.6790 5.1862 -1.3659 3.6871 -9.8710 2.0188 6.5211 -0.0000 0.0000 -0.0000 -14.0419 27.0947 1.2886 1.3537 -0.7204 9.1502 -79.8935 12.0764 -37.0347 0.0000 0.0000 -79.7109 -33.4172 -23.6585 -3.4280 -15.6637 -5.1822 4.5825 1.1048 2.1266 23.6893 19.1221 10.7361 25.1787 -84.2969 0.0144 1.2270 -89.8752 0.0150 -0.0150 -37.4513 0.0031 -0.0091 -81.6985 0.0137 1.3197 -88.7454 0.0147 -0.0150 -26.3088 0.0016 -0.0067 -90.7243 0.0162 -2.6221 -86.0527 0.0140 -0.0150 -46.1135 0.0046 -0.0108 -94.4676 0.0171 -5.9900 -69.6527 0.0098 -0.0141 -40.9001 0.0037 -0.0098 -0.9676 0.4812 7.6093 61.2997 9.0013 10.9022 0.0000 0.0000 109.0388 -1.5141 17.2818 12.3260 16.1056 -5.4430 9.4952 4.0729 9.3472 -37.5297 -5.4621 16.4695 -44.9740 89.5090 0.0082 -2.5690 103.3364 0.0097 0.0077 58.7602 0.0038 0.0068 96.5617 0.0092 -1.0779 98.6083 0.0091 0.0078 54.1866 0.0033 0.0064 101.1425 0.0098 2.0842 97.3139 0.0089 0.0078 40.3048 0.0019 0.0051 104.9738 0.0103 3.1957 96.3203 0.0088 0.0079 43.8325 0.0022 0.0055 -21.3141 13.1611 20.3620 45.5428 8.4735 2.4848 1.5492 0.3145 -12.8748 -2.7070 0.0041 -0.0420 3.7328 -17.3029 -16.9700 55.0560 -10.3400 -0.7113 -29.4941 -13.6628 9.7888 -3.1501 -0.2044 5.7740 
